<svg xmlns="http://www.w3.org/2000/svg" viewBox="0 0 458 458"><style>.dots{fill:#2d1582}</style><circle cx="4" cy="4" r="4" class="dots fill-indigo"/><circle cx="94" cy="4" r="4" class="dots fill-indigo"/><circle cx="184" cy="4" r="4" class="dots fill-indigo"/><circle cx="274" cy="4" r="4" class="dots fill-indigo"/><circle cx="364" cy="4" r="4" class="dots fill-indigo"/><circle cx="454" cy="4" r="4" class="dots fill-indigo"/><circle cx="4" cy="94" r="4" class="dots fill-indigo"/><circle cx="94" cy="94" r="4" class="dots fill-indigo"/><circle cx="184" cy="94" r="4" class="dots fill-indigo"/><circle cx="274" cy="94" r="4" class="dots fill-indigo"/><circle cx="364" cy="94" r="4" class="dots fill-indigo"/><circle cx="454" cy="94" r="4" class="dots fill-indigo"/><circle cx="4" cy="184" r="4" class="dots fill-indigo"/><circle cx="94" cy="184" r="4" class="dots fill-indigo"/><circle cx="184" cy="184" r="4" class="dots fill-indigo"/><circle cx="274" cy="184" r="4" class="dots fill-indigo"/><circle cx="364" cy="184" r="4" class="dots fill-indigo"/><circle cx="454" cy="184" r="4" class="dots fill-indigo"/><circle cx="4" cy="274" r="4" class="dots fill-indigo"/><circle cx="94" cy="274" r="4" class="dots fill-indigo"/><circle cx="184" cy="274" r="4" class="dots fill-indigo"/><circle cx="274" cy="274" r="4" class="dots fill-indigo"/><circle cx="364" cy="274" r="4" class="dots fill-indigo"/><circle cx="454" cy="274" r="4" class="dots fill-indigo"/><circle cx="4" cy="364" r="4" class="dots fill-indigo"/><circle cx="94" cy="364" r="4" class="dots fill-indigo"/><circle cx="184" cy="364" r="4" class="dots fill-indigo"/><circle cx="274" cy="364" r="4" class="dots fill-indigo"/><circle cx="364" cy="364" r="4" class="dots fill-indigo"/><circle cx="454" cy="364" r="4" class="dots fill-indigo"/><circle cx="4" cy="454" r="4" class="dots fill-indigo"/><circle cx="94" cy="454" r="4" class="dots fill-indigo"/><circle cx="184" cy="454" r="4" class="dots fill-indigo"/><circle cx="274" cy="454" r="4" class="dots fill-indigo"/><circle cx="364" cy="454" r="4" class="dots fill-indigo"/><circle cx="454" cy="454" r="4" class="dots fill-indigo"/></svg>