<svg xmlns="http://www.w3.org/2000/svg" xmlns:xlink="http://www.w3.org/1999/xlink" x="0" y="0" viewBox="0 0 120 120" xml:space="preserve" style="enable-background:new 0 0 120 120"><style type="text/css">.icon-52-0{fill:none;stroke:#bdc5d1}.icon-52-1{fill:#bdc5d1}.icon-52-2{fill:#377dff}.icon-52-3{fill:#fff}</style><path stroke-miterlimit="10" stroke-width="3" d="M105.3,118.4H14.7c-1.5,0-2.7-1.3-2.7-2.9v-85c0-1.6,1.2-2.9,2.7-2.9h90.6c1.5,0,2.7,1.3,2.7,2.9v85	C108,117.1,106.8,118.4,105.3,118.4z" class="icon-52-0 fill-none stroke-gray-400"/><g opacity=".5"><path d="M12.2,43.4L12.2,43.4C5.6,43.4,0.3,38,0.3,31.4V17.7h23.9v13.7C24.2,38,18.8,43.4,12.2,43.4z" class="icon-52-1 fill-gray-400"/><path d="M36.1,43.4L36.1,43.4c-6.6,0-11.9-5.3-11.9-11.9V17.7h23.9v13.7C48.1,38,42.7,43.4,36.1,43.4z" class="icon-52-1 fill-gray-400"/><path d="M60,43.4L60,43.4c-6.6,0-11.9-5.3-11.9-11.9V17.7h23.9v13.7C71.9,38,66.6,43.4,60,43.4z" class="icon-52-1 fill-gray-400"/><path d="M83.9,43.4L83.9,43.4c-6.6,0-11.9-5.3-11.9-11.9V17.7h23.9v13.7C95.8,38,90.5,43.4,83.9,43.4z" class="icon-52-1 fill-gray-400"/><path d="M107.8,43.4L107.8,43.4c-6.6,0-11.9-5.3-11.9-11.9V17.7h23.9v13.7C119.7,38,114.4,43.4,107.8,43.4z" class="icon-52-1 fill-gray-400"/></g><g><path d="M12.2,39.6L12.2,39.6c-6.6,0-11.9-5.3-11.9-11.9V14h23.9v13.7C24.2,34.3,18.8,39.6,12.2,39.6z" class="icon-52-2 fill-primary"/><path d="M36.1,39.6L36.1,39.6c-6.6,0-11.9-5.3-11.9-11.9V14h23.9v13.7C48.1,34.3,42.7,39.6,36.1,39.6z" class="icon-52-3 fill-white"/><path d="M60,39.6L60,39.6c-6.6,0-11.9-5.3-11.9-11.9V14h23.9v13.7C71.9,34.3,66.6,39.6,60,39.6z" class="icon-52-2 fill-primary"/><path d="M83.9,39.6L83.9,39.6c-6.6,0-11.9-5.3-11.9-11.9V14h23.9v13.7C95.8,34.3,90.5,39.6,83.9,39.6z" class="icon-52-3 fill-white"/><path d="M107.8,39.6L107.8,39.6c-6.6,0-11.9-5.3-11.9-11.9V14h23.9v13.7C119.7,34.3,114.4,39.6,107.8,39.6z" class="icon-52-2 fill-primary"/></g><polygon points="24.2 14 39.1 .2 53.8 .2 48.1 14" class="icon-52-3 fill-white"/><polygon points="39.1 .2 27.3 .2 .3 14 24.2 14" class="icon-52-2 fill-primary"/><polygon points="66.2 .2 62.1 .2 57.9 .2 53.8 .2 48.1 14 57.9 14 62.1 14 71.9 14" class="icon-52-2 fill-primary"/><polygon points="95.8 14 80.9 .2 66.2 .2 71.9 14" class="icon-52-3 fill-white"/><polygon points="80.9 .2 92.7 .2 119.7 14 95.8 14" class="icon-52-2 fill-primary"/><path d="M83.7,110.4H51.3c-1.4,0-2.4-1.1-2.4-2.4V61.2c0-1.4,1.1-2.4,2.4-2.4h32.4c1.4,0,2.4,1.1,2.4,2.4v46.7	C86.2,109.3,85.1,110.4,83.7,110.4z" class="icon-52-1 fill-gray-400" opacity=".5"/><path d="M75.5,103.2H45.7c-1.2,0-2.2-1-2.2-2.2V58c0-1.2,1-2.2,2.2-2.2h29.8c1.2,0,2.2,1,2.2,2.2v42.9	C77.7,102.2,76.7,103.2,75.5,103.2z" class="icon-52-2 fill-primary"/><path stroke-miterlimit="10" stroke-width="3" d="M29.5,76.7c0,2.2-1.7,3.9-3.9,3.9s-3.9-1.7-3.9-3.9s1.7-3.9,3.9-3.9S29.5,74.6,29.5,76.7z" class="icon-52-0 fill-none stroke-gray-400"/><path stroke-miterlimit="10" stroke-width="3" d="M98.6,76.7c0,2.2-1.7,3.9-3.9,3.9c-2.2,0-3.9-1.7-3.9-3.9c0-2.2,1.7-3.9,3.9-3.9C96.9,72.8,98.6,74.6,98.6,76.7	z" class="icon-52-0 fill-none stroke-gray-400"/></svg>