<svg xmlns="http://www.w3.org/2000/svg" xmlns:xlink="http://www.w3.org/1999/xlink" x="0" y="0" viewBox="0 0 120 120" xml:space="preserve" style="enable-background:new 0 0 120 120"><style type="text/css">.icon-2-0{fill:none;stroke:#377dff}.icon-2-1{fill:none;stroke:#bdc5d1}.icon-2-2{fill:#377dff}.icon-2-3{fill:#bdc5d1}.icon-2-4{fill:#fff}</style><path stroke-linecap="round" stroke-linejoin="round" stroke-miterlimit="10" stroke-width="3" d="M99.1,113.3" class="icon-2-0 fill-none stroke-primary"/><path stroke-linecap="round" stroke-linejoin="round" stroke-miterlimit="10" stroke-width="3" d="M15.1,75.6V11l4.4-4.3l4.3,4.3l4.3-4.3l4.3,4.3l4.3-4.3l4.3,4.3l4.3-4.3l4.3,4.3l4.3-4.3l4.3,4.3l4.3-4.3	l4.3,4.3l4.3-4.3l4.3,4.3l4.3-4.3l4.3,4.3L89,6.7l4.4,4.3v96.5c0,3.2,2.6,5.8,5.8,5.8l0,0c3.2,0,5.8-2.6,5.8-5.8V13.2h-5.8v93.1" class="icon-2-1 fill-none stroke-gray-400"/><line x1="99.1" x2="26.1" y1="113.3" y2="113.3" stroke-linecap="round" stroke-linejoin="round" stroke-miterlimit="10" stroke-width="3" class="icon-2-1 fill-none stroke-gray-400"/><g opacity=".5"><path d="M78.1,44.5H39.2c-4.1,0-7.3-3.3-7.3-7.3v0c0-4.1,3.3-7.3,7.3-7.3h38.9c4.1,0,7.3,3.3,7.3,7.3v0 C85.5,41.2,82.2,44.5,78.1,44.5z" class="icon-2-3 fill-gray-400"/></g><g><path d="M73.1,38H34.2c-4.1,0-7.3-3.3-7.3-7.3v0c0-4.1,3.3-7.3,7.3-7.3h38.9c4.1,0,7.3,3.3,7.3,7.3v0 C80.5,34.7,77.2,38,73.1,38z" class="icon-2-2 fill-primary"/></g><g><path d="M65.4,32.3H41.9c-0.9,0-1.6-0.7-1.6-1.6v0c0-0.9,0.7-1.6,1.6-1.6h23.5c0.9,0,1.6,0.7,1.6,1.6v0 C67,31.5,66.3,32.3,65.4,32.3z" class="icon-2-4 fill-white"/></g><g opacity=".5"><line x1="3.8" x2="33.1" y1="86" y2="86" stroke-linecap="round" stroke-linejoin="round" stroke-miterlimit="10" stroke-width="3" class="icon-2-1 fill-none stroke-gray-400"/><line x1="3.8" x2="33.1" y1="93.5" y2="93.5" stroke-linecap="round" stroke-linejoin="round" stroke-miterlimit="10" stroke-width="3" class="icon-2-1 fill-none stroke-gray-400"/><line x1="3.8" x2="18.3" y1="101.1" y2="101.1" stroke-linecap="round" stroke-linejoin="round" stroke-miterlimit="10" stroke-width="3" class="icon-2-1 fill-none stroke-gray-400"/><line x1="27.3" x2="33.1" y1="101.1" y2="101.1" stroke-linecap="round" stroke-linejoin="round" stroke-miterlimit="10" stroke-width="3" class="icon-2-1 fill-none stroke-gray-400"/></g><line x1="54.4" x2="54.4" y1="90.6" y2="102.8" stroke-linecap="round" stroke-linejoin="round" stroke-miterlimit="10" stroke-width="3" class="icon-2-1 fill-none stroke-gray-400" opacity=".5"/><line x1="62.3" x2="62.3" y1="87.1" y2="102.8" stroke-linecap="round" stroke-linejoin="round" stroke-miterlimit="10" stroke-width="3" class="icon-2-1 fill-none stroke-gray-400" opacity=".5"/><line x1="70.3" x2="70.3" y1="89.7" y2="102.8" stroke-linecap="round" stroke-linejoin="round" stroke-miterlimit="10" stroke-width="3" class="icon-2-1 fill-none stroke-gray-400" opacity=".5"/><line x1="78.3" x2="78.3" y1="81.8" y2="102.8" stroke-linecap="round" stroke-linejoin="round" stroke-miterlimit="10" stroke-width="3" class="icon-2-1 fill-none stroke-gray-400" opacity=".5"/><polyline stroke-linecap="round" stroke-linejoin="round" stroke-miterlimit="10" stroke-width="3" points="50.6 86 64.2 75.6 69 81.3 80.9 71.2" class="icon-2-0 fill-none stroke-primary"/></svg>