<svg xmlns="http://www.w3.org/2000/svg" xmlns:xlink="http://www.w3.org/1999/xlink" x="0" y="0" viewBox="0 0 120 120" xml:space="preserve" style="enable-background:new 0 0 120 120"><style type="text/css">.icon-24-0{fill:none;stroke:#bdc5d1}.icon-24-1{fill:#377dff}.icon-24-2{fill:none;stroke:#377dff}.icon-24-3{fill:none;stroke:#fff}.icon-24-4{fill:#bdc5d1}</style><line x1="99.8" x2="106.5" y1="26.9" y2="24.1" stroke-linecap="round" stroke-linejoin="round" stroke-miterlimit="10" stroke-width="3" class="icon-24-0 fill-none stroke-gray-400"/><line x1="47.1" x2="40.4" y1="26.9" y2="24.1" stroke-linecap="round" stroke-linejoin="round" stroke-miterlimit="10" stroke-width="3" class="icon-24-0 fill-none stroke-gray-400"/><line x1="99.8" x2="106.5" y1="48.7" y2="51.5" stroke-linecap="round" stroke-linejoin="round" stroke-miterlimit="10" stroke-width="3" class="icon-24-0 fill-none stroke-gray-400"/><line x1="47.1" x2="40.4" y1="48.7" y2="51.5" stroke-linecap="round" stroke-linejoin="round" stroke-miterlimit="10" stroke-width="3" class="icon-24-0 fill-none stroke-gray-400"/><g><line x1="84.4" x2="87.1" y1="11.5" y2="4.8" stroke-linecap="round" stroke-linejoin="round" stroke-miterlimit="10" stroke-width="3" class="icon-24-0 fill-none stroke-gray-400"/></g><g><line x1="59.8" x2="62.5" y1="4.8" y2="11.5" stroke-linecap="round" stroke-linejoin="round" stroke-miterlimit="10" stroke-width="3" class="icon-24-0 fill-none stroke-gray-400"/></g><g><line x1="48.2" x2="53.3" y1="12.5" y2="17.6" stroke-linecap="round" stroke-linejoin="round" stroke-miterlimit="10" stroke-width="3" class="icon-24-0 fill-none stroke-gray-400"/></g><g><line x1="98.7" x2="93.6" y1="12.5" y2="17.6" stroke-linecap="round" stroke-linejoin="round" stroke-miterlimit="10" stroke-width="3" class="icon-24-0 fill-none stroke-gray-400"/></g><line x1="48.2" x2="53.3" y1="63.1" y2="58" stroke-linecap="round" stroke-linejoin="round" stroke-miterlimit="10" stroke-width="3" class="icon-24-0 fill-none stroke-gray-400"/><line x1="98.7" x2="93.6" y1="63.1" y2="58" stroke-linecap="round" stroke-linejoin="round" stroke-miterlimit="10" stroke-width="3" class="icon-24-0 fill-none stroke-gray-400"/><g><line x1="73.5" x2="73.5" y1="2.1" y2="9.3" stroke-linecap="round" stroke-linejoin="round" stroke-miterlimit="10" stroke-width="3" class="icon-24-0 fill-none stroke-gray-400"/></g><g><line x1="102" x2="109.2" y1="37.8" y2="37.8" stroke-linecap="round" stroke-linejoin="round" stroke-miterlimit="10" stroke-width="3" class="icon-24-0 fill-none stroke-gray-400"/></g><g><line x1="37.7" x2="45" y1="37.8" y2="37.8" stroke-linecap="round" stroke-linejoin="round" stroke-miterlimit="10" stroke-width="3" class="icon-24-0 fill-none stroke-gray-400"/></g><path stroke-linecap="round" stroke-linejoin="round" stroke-miterlimit="10" stroke-width="3" d="M84.3,96.7l17.3-4.7c2.1-0.6,4.3,0.6,5,2.7l0,0c0.6,1.9-0.2,4.1-2.1,5L71,116.5c-3.7,1.8-8,2-11.7,0.4	l-18.6-7.9h-9.4" class="icon-24-0 fill-none stroke-gray-400"/><path stroke-linecap="round" stroke-linejoin="round" stroke-miterlimit="10" stroke-width="3" d="M31.2,82.5h9.4l19.8,6.1h11.6c2.7,0,4.9,2.2,4.9,4.9l0,0c0,2.5-2,4.5-4.5,4.5h-12c-2.6,0-4.7,2.1-4.7,4.7l0,0" class="icon-24-0 fill-none stroke-gray-400"/><path d="M12.2,112.3h17.6c0.8,0,1.4-0.6,1.4-1.4V80.6c0-0.8-0.6-1.4-1.4-1.4H12.2c-0.8,0-1.4,0.6-1.4,1.4v30.3	C10.8,111.6,11.4,112.3,12.2,112.3z" class="icon-24-1 fill-primary"/><path stroke-linecap="round" stroke-linejoin="round" stroke-miterlimit="10" stroke-width="3" d="M84.1,62.6v-7.8c5.7-3.6,9.5-9.8,9.5-17c0-11.1-9-20.1-20.1-20.1c-11.1,0-20.1,9-20.1,20.1	c0,7.2,3.8,13.5,9.5,17v7.8" class="icon-24-0 fill-none stroke-gray-400"/><line x1="73.5" x2="73.5" y1="55.4" y2="69.7" stroke-linecap="round" stroke-linejoin="round" stroke-miterlimit="10" stroke-width="3" class="icon-24-2 fill-none stroke-primary"/><line x1="84.1" x2="62.8" y1="69.7" y2="69.7" stroke-linecap="round" stroke-linejoin="round" stroke-miterlimit="10" stroke-width="3" class="icon-24-2 fill-none stroke-primary"/><line x1="68.4" x2="78.5" y1="77.9" y2="77.9" stroke-linecap="round" stroke-linejoin="round" stroke-miterlimit="10" stroke-width="3" class="icon-24-2 fill-none stroke-primary"/><line x1="21.8" x2="21.8" y1="85.7" y2="88.8" stroke-linecap="round" stroke-linejoin="round" stroke-miterlimit="10" stroke-width="3" class="icon-24-3 fill-none stroke-white"/><circle cx="76.8" cy="40.8" r="10.6" class="icon-24-4 fill-gray-400" opacity=".5"/><circle cx="73.2" cy="36.7" r="10.6" class="icon-24-1 fill-primary"/><line x1="73.2" x2="73.2" y1="41.7" y2="39.7" stroke-linecap="round" stroke-linejoin="round" stroke-miterlimit="10" stroke-width="3" class="icon-24-3 fill-none stroke-white"/><line x1="73.2" x2="73.2" y1="34.1" y2="34.1" stroke-linecap="round" stroke-linejoin="round" stroke-miterlimit="10" stroke-width="3" class="icon-24-3 fill-none stroke-white"/></svg>