<svg xmlns="http://www.w3.org/2000/svg" xmlns:xlink="http://www.w3.org/1999/xlink" x="0" y="0" viewBox="0 0 120 120" xml:space="preserve" style="enable-background:new 0 0 120 120"><style type="text/css">.icon-46-0,.icon-46-1{fill:#bdc5d1;stroke:#bdc5d1}.icon-46-1{fill:#fff}.icon-46-2{fill:#377dff}.icon-46-3{fill:#fff}.icon-46-4{fill:none;stroke:377DFF}</style><path stroke-linecap="round" stroke-linejoin="round" stroke-miterlimit="10" stroke-width="3" d="M99.8,100.9c-7.4,7.8-16.6,13.9-26.9,17.6C46.2,109,27,83.6,27,53.9V28.6l45.8-15.2l45.8,15.2v25.3	c0,9.2-1.8,18-5.2,26C113.5,79.9,107.6,93.8,99.8,100.9z" class="icon-46-0 fill-gray-400 stroke-gray-400" opacity=".4"/><path stroke-linecap="round" stroke-linejoin="round" stroke-miterlimit="10" stroke-width="3" d="M82.4,98.9c-8.3,8.7-18.5,15.5-30,19.6c-29.6-10.5-51-38.8-51-71.9V18.3l51-16.9l51,16.9v28.2	c0,10.2-2.1,20-5.8,29C97.7,75.5,91.2,91,82.4,98.9z" class="icon-46-1 fill-white stroke-gray-400"/><path stroke-linecap="round" stroke-linejoin="round" stroke-miterlimit="10" stroke-width="3" d="M52.4,1.5L52.4,1.5v117c11.5-4.1,21.8-10.9,30-19.6c8.7-7.9,15.3-23.4,15.3-23.4c3.7-8.9,5.8-18.7,5.8-29V18.3	L52.4,1.5z" class="icon-46-0 fill-gray-400 stroke-gray-400" opacity=".2"/><g><defs><circle id="icon46ID_1" cx="50.8" cy="57.5" r="28.8"/></defs><use class="icon-46-2 fill-primary" xlink:href="#icon46ID_1" style="overflow:visible"/><clipPath id="icon46ID_2"><use xlink:href="#icon46ID_1" style="overflow:visible"/></clipPath><circle cx="50.5" cy="86.2" r="21.7" class="icon-46-3 fill-white" clip-path="url(#icon46ID_2)"/><use stroke-miterlimit="10" stroke-width="3" class="icon-46-4 fill-none stroke-primary" xlink:href="#icon46ID_1" style="overflow:visible"/></g><circle cx="50.8" cy="46.7" r="8.3" class="icon-46-3 fill-white"/></svg>