<svg xmlns="http://www.w3.org/2000/svg" xmlns:xlink="http://www.w3.org/1999/xlink" x="0" y="0" viewBox="0 0 120 120" xml:space="preserve" style="enable-background:new 0 0 120 120"><style type="text/css">.icon-39-0{fill:none;stroke:#bdc5d1}.icon-39-1{fill:#bdc5d1}.icon-39-2{fill:#377dff}.icon-39-3{fill:none;stroke:#fff}</style><line x1="75.1" x2="77" y1="17.1" y2="23.8" stroke-linecap="round" stroke-linejoin="round" stroke-miterlimit="10" stroke-width="3" class="icon-39-0 fill-none stroke-gray-400" opacity=".5"/><line x1="25.1" x2="29.8" y1="26" y2="24.7" stroke-linecap="round" stroke-linejoin="round" stroke-miterlimit="10" stroke-width="3" class="icon-39-0 fill-none stroke-gray-400" opacity=".5"/><path stroke-linecap="round" stroke-linejoin="round" stroke-miterlimit="10" stroke-width="3" d="M11.4,41.1l-2-7.1c-0.5-1.9,0.6-3.9,2.5-4.4l7.5-2.1" class="icon-39-0 fill-none stroke-gray-400"/><path stroke-linecap="round" stroke-linejoin="round" stroke-miterlimit="10" stroke-width="3" d="M90.9,48.9L80.2,10c-0.8-3-4-4.8-7-4L5.8,24.7c-3,0.8-4.8,4-4,7l11.6,41.8c0.8,3,4,4.8,7,4l8.5-2.3" class="icon-39-0 fill-none stroke-gray-400"/><path stroke-linecap="round" stroke-linejoin="round" stroke-miterlimit="10" stroke-width="3" d="M113.8,114.1H42.1c-3.4,0-6.2-2.8-6.2-6.2V62.8c0-3.4,2.8-6.2,6.2-6.2h71.7c3.4,0,6.2,2.8,6.2,6.2v45.1	C120,111.3,117.2,114.1,113.8,114.1z" class="icon-39-1 fill-gray-400" opacity=".5"/><path d="M105.4,103.3H33.7c-3.4,0-6.2-2.8-6.2-6.2V52c0-3.4,2.8-6.2,6.2-6.2h71.7c3.4,0,6.2,2.8,6.2,6.2v45.1	C111.6,100.6,108.9,103.3,105.4,103.3z" class="icon-39-2 fill-primary"/><line x1="41" x2="32.3" y1="84.7" y2="84.7" stroke-linecap="round" stroke-linejoin="round" stroke-miterlimit="10" stroke-width="3" class="icon-39-3 fill-none stroke-white" opacity=".5"/><line x1="50.1" x2="32.3" y1="90.8" y2="90.8" stroke-linecap="round" stroke-linejoin="round" stroke-miterlimit="10" stroke-width="3" class="icon-39-3 fill-none stroke-white" opacity=".5"/><rect width="16.9" height="7.6" x="90" y="83.2" stroke-linecap="round" stroke-linejoin="round" stroke-miterlimit="10" stroke-width="3" class="icon-39-3 fill-none stroke-white" opacity=".5"/><line x1="106.8" x2="32.3" y1="61.1" y2="61.1" stroke-linecap="round" stroke-linejoin="round" stroke-miterlimit="10" stroke-width="3" class="icon-39-3 fill-none stroke-white"/><line x1="106.8" x2="32.3" y1="74.6" y2="74.6" stroke-linecap="round" stroke-linejoin="round" stroke-miterlimit="10" stroke-width="3" class="icon-39-3 fill-none stroke-white"/></svg>