<svg xmlns="http://www.w3.org/2000/svg" xmlns:xlink="http://www.w3.org/1999/xlink" x="0" y="0" viewBox="0 0 120 120" xml:space="preserve" style="enable-background:new 0 0 120 120"><style type="text/css">.icon-4-0{fill:none;stroke:#377dff}.icon-4-1{fill:none;stroke:#bdc5d1}.icon-4-2{fill:none;stroke:#fff}.icon-4-3{fill:#bdc5d1}.icon-4-4{fill:#377dff}</style><path stroke-linecap="round" stroke-linejoin="round" stroke-miterlimit="10" stroke-width="3" d="M27.8,37.1c0,1.5-1.3,2.8-2.8,2.8c-1.5,0-2.8-1.2-2.8-2.8c0-1.5,1.3-2.8,2.8-2.8C26.6,34.3,27.8,35.5,27.8,37.1	z" class="icon-4-0 fill-none stroke-primary"/><path stroke-linecap="round" stroke-linejoin="round" stroke-miterlimit="10" stroke-width="3" d="M41,37.1c0,1.5-1.2,2.8-2.8,2.8c-1.5,0-2.8-1.2-2.8-2.8c0-1.5,1.2-2.8,2.8-2.8C39.8,34.3,41,35.5,41,37.1z" class="icon-4-1 fill-none stroke-gray-400" opacity=".5"/><path stroke-linecap="round" stroke-linejoin="round" stroke-miterlimit="10" stroke-width="3" d="M54.2,37.1c0,1.5-1.3,2.8-2.8,2.8c-1.5,0-2.8-1.2-2.8-2.8c0-1.5,1.3-2.8,2.8-2.8C53,34.3,54.2,35.5,54.2,37.1z" class="icon-4-1 fill-none stroke-gray-400" opacity=".5"/><path stroke-linecap="round" stroke-linejoin="round" stroke-miterlimit="10" stroke-width="3" d="M105.8,61.7c0.8,1.4,1.4,2.9,1.9,4.5" class="icon-4-1 fill-none stroke-gray-400" opacity=".5"/><path stroke-linecap="round" stroke-linejoin="round" stroke-miterlimit="10" stroke-width="3" d="M76.8,48c9.7-1.8,19.3,1.7,25.4,8.6" class="icon-4-1 fill-none stroke-gray-400" opacity=".5"/><path stroke-linecap="round" stroke-linejoin="round" stroke-miterlimit="10" stroke-width="3" d="M72.2,41.2C74.6,23.3,62.6,6.4,44.6,3C26-0.6,8,11.7,4.5,30.3c-1.8,9.6,0.6,19,5.8,26.4L5.3,71.8l16.1-5.2	c3.2,1.8,6.7,3.1,10.4,3.8c5.5,1,10.9,0.7,15.9-0.8" class="icon-4-1 fill-none stroke-gray-400" opacity=".5"/><path d="M74.3,50.5c18.6-3.5,36.6,8.7,40.1,27.3c1.8,9.6-0.6,19-5.8,26.4l5.1,15.1l-16.1-5.2c-3.2,1.8-6.7,3.1-10.4,3.8	c-18.6,3.5-36.6-8.7-40.1-27.3C43.4,72,55.7,54.1,74.3,50.5z" class="icon-4-3 fill-gray-400" opacity=".5"/><path d="M75.4,40.4c18.6-3.5,36.6,8.7,40.1,27.3c1.8,9.6-0.6,19-5.8,26.4l5.1,15.1l-16.1-5.2c-3.2,1.8-6.7,3.1-10.4,3.8	c-18.6,3.5-36.6-8.7-40.1-27.3C44.5,61.9,56.8,44,75.4,40.4z" class="icon-4-4 fill-primary"/><circle cx="95" cy="74.5" r="2.8" stroke-linecap="round" stroke-linejoin="round" stroke-miterlimit="10" stroke-width="3" class="icon-4-2 fill-none stroke-white" opacity=".5"/><circle cx="81.8" cy="74.5" r="2.8" stroke-linecap="round" stroke-linejoin="round" stroke-miterlimit="10" stroke-width="3" class="icon-4-2 fill-none stroke-white" opacity=".5"/><circle cx="68.6" cy="74.5" r="2.8" stroke-linecap="round" stroke-linejoin="round" stroke-miterlimit="10" stroke-width="3" class="icon-4-2 fill-none stroke-white"/></svg>